<?xml version="1.0" standalone="no"?>
<!DOCTYPE svg PUBLIC "-//W3C//DTD SVG 20010904//EN"
 "http://www.w3.org/TR/2001/REC-SVG-20010904/DTD/svg10.dtd">
<svg version="1.0" xmlns="http://www.w3.org/2000/svg"
 width="512.000000pt" height="512.000000pt" viewBox="0 0 512.000000 512.000000"
 preserveAspectRatio="xMidYMid meet">
<metadata>
Created by potrace 1.14, written by Peter Selinger 2001-2017
</metadata>
<g transform="translate(0.000000,512.000000) scale(0.100000,-0.100000)"
fill="#000000" stroke="none">
<path d="M4334 4660 c-116 -24 -229 -115 -286 -229 -31 -63 -33 -71 -33 -176
0 -102 2 -115 31 -175 40 -85 114 -160 201 -201 59 -29 80 -33 161 -36 75 -2
104 2 150 19 185 69 285 220 277 421 -9 202 -179 371 -383 382 -43 2 -96 0
-118 -5z"/>
<path d="M796 4635 c-76 -16 -195 -68 -254 -112 -98 -73 -182 -186 -224 -303
l-23 -65 0 -1595 0 -1595 24 -69 c34 -101 86 -183 162 -257 116 -114 279 -179
443 -179 107 0 191 21 290 72 88 45 20 -20 1357 1309 325 323 365 371 407 489
66 181 50 374 -45 540 -30 54 -178 206 -832 860 -594 593 -811 804 -854 829
-134 78 -303 107 -451 76z"/>
<path d="M2650 4604 c-242 -42 -403 -111 -523 -227 -87 -84 -114 -183 -72
-270 11 -24 227 -247 580 -600 579 -579 620 -624 666 -746 74 -198 51 -399
-65 -573 -19 -29 -287 -305 -595 -613 -402 -401 -565 -571 -576 -598 -59 -147
71 -303 341 -410 240 -95 501 -97 678 -4 48 25 198 170 846 816 692 690 793
794 825 854 61 112 77 176 78 307 2 164 -37 281 -131 400 -59 74 -1502 1510
-1569 1561 -60 46 -137 78 -233 96 -48 10 -209 14 -250 7z"/>
</g>
</svg>
